<svg width="20" height="20" viewBox="0 0 20 20" fill="none" xmlns="http://www.w3.org/2000/svg">
<g clip-path="url(#clip0_9:4581)">
<path d="M20 6.35998C19.98 6.65998 19.95 6.95998 19.94 7.24998C19.9 8.10998 19.85 8.96998 19.82 9.81998C19.81 10.04 19.7 10.18 19.56 10.29C19.44 10.39 19.3 10.35 19.24 10.16C19.15 9.88998 19.07 9.60998 19.04 9.32998C18.97 8.60998 18.93 7.88998 18.88 7.16998C18.88 7.12998 18.87 7.08998 18.87 7.05998C18.53 7.05998 18.2 7.06998 17.87 7.05998C17.26 7.03998 16.65 7.00998 16.03 6.99998C13.41 6.96998 10.8 6.94998 8.18003 6.90998C7.01003 6.90998 5.85003 6.84998 4.69003 6.79998C4.58003 6.79998 4.46003 6.78998 4.37003 6.72998C4.29003 6.67998 4.20003 6.56998 4.20003 6.47998C4.20003 6.40998 4.30003 6.27998 4.38003 6.25998C4.60003 6.20998 4.82003 6.17998 5.05003 6.17998C7.39003 6.13998 9.74003 6.12998 12.08 6.06998C14.29 5.99998 16.49 5.87998 18.7 5.77998C18.76 5.77998 18.81 5.76998 18.89 5.75998C18.88 5.25998 18.87 4.76998 18.64 4.31998C18.52 4.09998 18.35 3.94998 18.1 3.88998C16.87 3.56998 15.62 3.47998 14.36 3.47998C13.08 3.47998 11.81 3.51998 10.53 3.51998C9.90003 3.51998 9.28003 3.44998 8.69003 3.21998C8.42003 3.11998 8.25003 2.93998 8.18003 2.64998C8.07003 2.12998 7.88003 1.66998 7.45003 1.34998C6.94003 0.959981 6.37003 0.799981 5.77003 0.759981C4.98003 0.689981 4.19003 0.789981 3.42003 0.919981C3.37003 0.929981 3.32003 0.989981 3.27003 1.01998C3.14003 1.10998 3.02003 1.24998 2.88003 1.26998C1.75003 1.46998 1.28003 2.25998 1.12003 3.25998C1.00003 4.02998 1.03003 4.79998 1.10003 5.56998C1.23003 7.11998 1.21003 8.65998 1.15003 10.21C1.09003 11.66 1.04003 13.11 1.02003 14.56C1.01003 15.12 1.07003 15.69 1.17003 16.24C1.41003 17.52 2.11003 18.12 3.36003 18.17C3.76003 18.19 4.16003 18.12 4.57003 18.11C5.78003 18.09 6.99003 18.08 8.20003 18.06C8.67003 18.05 9.14003 18.03 9.61003 18.02C9.92003 18.01 10.1 18.17 10.11 18.46C10.12 18.75 9.93003 18.93 9.61003 18.92C8.65003 18.9 7.70003 18.85 6.74003 18.85C5.87003 18.85 5.00003 18.88 4.12003 18.9C3.43003 18.91 2.75003 18.91 2.09003 18.68C1.31003 18.42 0.81003 17.88 0.57003 17.06C0.24003 15.94 0.17003 14.79 0.18003 13.62C0.20003 12.35 0.26003 11.08 0.25003 9.81998C0.22003 8.33998 0.15003 6.84998 0.0800304 5.36998C0.0400304 4.50998 -0.0899696 3.65998 0.10003 2.80998C0.31003 1.90998 0.68003 1.11998 1.41003 0.559981C1.80003 0.259981 2.25003 0.0999811 2.73003 0.0399811C2.84003 0.0299811 2.97003 0.0599811 3.06003 0.129981C3.17003 0.209981 3.27003 0.229981 3.40003 0.209981C4.21003 0.0699811 5.02003 -0.0400189 5.85003 0.0299811C6.49003 0.0799811 7.10003 0.229981 7.65003 0.569981C8.25003 0.939981 8.68003 1.45998 8.84003 2.18998C8.90003 2.38998 9.00003 2.47998 9.19003 2.49998C9.67003 2.54998 10.15 2.63998 10.63 2.61998C12.27 2.55998 13.91 2.44998 15.55 2.36998C16.53 2.32998 17.51 2.33998 18.45 2.67998C19.3 2.98998 19.88 3.55998 19.98 4.54998C19.98 4.56998 20 4.57998 20.01 4.59998C20 5.18998 20 5.76998 20 6.35998Z" fill="#666C9D"/>
<path d="M19.93 14.1701C19.92 14.4401 19.81 14.7601 19.52 15.0001C19.36 15.1201 19.21 15.2401 19.05 15.3701C18.79 15.5901 18.74 15.8701 18.95 16.1501C19.06 16.3101 19.22 16.4301 19.35 16.5601C19.49 16.7001 19.64 16.8301 19.78 16.9801C19.82 17.0201 19.85 17.1101 19.83 17.1601C19.74 17.4201 19.65 17.6901 19.53 17.9301C19.41 18.1801 19.27 18.2301 19.01 18.1501C18.72 18.0601 18.44 17.9301 18.14 17.8401C18.07 17.8201 17.97 17.8401 17.89 17.8801C17.67 18.0001 17.46 18.1301 17.24 18.2501C16.99 18.4001 16.82 18.6001 16.82 18.9301C16.82 19.1401 16.78 19.3601 16.71 19.5701C16.62 19.8701 16.41 20.0101 16.1 20.0101C15.75 20.0101 15.55 19.8901 15.46 19.5701C15.39 19.3301 15.35 19.0801 15.31 18.8301C15.26 18.4901 15.09 18.2501 14.81 18.0701C14.42 17.8101 14.04 17.7401 13.62 18.0001C13.53 18.0601 13.42 18.0901 13.31 18.1201C12.83 18.2401 12.39 17.9001 12.36 17.3901C12.35 17.2601 12.42 17.1001 12.51 16.9901C12.61 16.8501 12.76 16.7601 12.89 16.6401C13.01 16.5401 13.14 16.4401 13.25 16.3301C13.47 16.0901 13.49 15.8401 13.29 15.5801C13.17 15.4101 13.02 15.2701 12.88 15.1201C12.73 14.9501 12.56 14.8001 12.42 14.6201C12.22 14.3601 12.18 14.0701 12.35 13.7801C12.53 13.4801 12.78 13.3101 13.13 13.3501C13.36 13.3801 13.59 13.4401 13.82 13.4801C14.11 13.5301 14.39 13.4901 14.64 13.3201C14.86 13.1701 15.01 13.0001 14.99 12.6801C14.98 12.4201 15.03 12.1501 15.11 11.9001C15.31 11.2801 16.29 11.0801 16.73 11.5501C16.87 11.7001 16.91 11.8901 16.92 12.0901C16.95 12.7001 17.26 13.1601 17.76 13.2701C18.02 13.3301 18.3 13.2901 18.57 13.2801C18.67 13.2801 18.76 13.2301 18.85 13.2101C19.49 13.0401 19.92 13.4001 19.93 14.1701ZM16.09 13.4101C15.55 14.3401 14.74 14.6501 13.73 14.6101C14.42 15.3801 14.57 16.1601 13.88 16.9801C14.46 16.8901 14.91 17.1701 15.35 17.4701C15.83 17.7901 16.05 18.2601 16.09 18.8501C16.12 18.8101 16.13 18.8001 16.13 18.7801C16.13 18.2401 16.42 17.9001 16.84 17.6501C17.13 17.4801 17.4 17.2801 17.69 17.1101C17.79 17.0501 17.94 17.0401 18.05 17.0601C18.34 17.1401 18.62 17.2501 18.9 17.3501C18.96 17.3701 19.02 17.3701 19.08 17.3801C19.09 17.3601 19.09 17.3501 19.1 17.3301C18.61 17.0301 18.13 16.7301 17.95 16.1201C17.76 15.5001 17.93 14.9801 18.41 14.5201C17.43 14.5601 16.66 14.2401 16.09 13.4101Z" fill="#666C9D"/>
<path d="M16.1 14.9099C16.51 14.9199 16.82 15.2699 16.82 15.7299C16.82 16.1699 16.48 16.5099 16.05 16.4999C15.63 16.4999 15.32 16.1399 15.33 15.6799C15.34 15.2299 15.66 14.8999 16.1 14.9099Z" fill="#666C9D"/>
</g>
<defs>
<clipPath id="clip0_9:4581">
<rect width="20" height="20" fill="white"/>
</clipPath>
</defs>
</svg>
