<svg width="20" height="20" viewBox="0 0 20 20" fill="none" xmlns="http://www.w3.org/2000/svg">
<g clip-path="url(#clip0_9:4839)">
<path d="M19.01 0C19.38 0.08 19.5 0.31 19.57 0.61C19.99 2.48 20.09 4.37 19.94 6.27C19.84 7.57 19.66 8.86 19.51 10.16C19.5 10.21 19.49 10.26 19.48 10.31C19.43 10.52 19.28 10.63 19.06 10.62C18.84 10.61 18.69 10.48 18.69 10.27C18.67 9.47 18.67 8.67 18.65 7.87C18.62 6.32 18.6 4.77 18.54 3.22C18.51 2.56 18.39 1.91 18.32 1.26C18.31 1.12 18.21 1.13 18.1 1.13C16.69 1.11 15.28 1.08 13.87 1.06C11.06 1.02 8.24999 0.99 5.43999 0.93C4.55999 0.91 3.67999 0.84 2.78999 0.79C2.45999 0.78 2.21999 0.9 2.02999 1.13C1.75999 1.46 1.64999 1.84 1.59999 2.23C1.43999 3.39 1.27999 4.56 1.17999 5.72C0.889989 9.36 1.02999 13.01 1.09999 16.65C1.09999 16.71 1.10999 16.78 1.10999 16.87C1.16999 16.83 1.20999 16.81 1.23999 16.78C1.94999 16.13 2.81999 15.71 3.82999 15.51C4.02999 15.47 4.09999 15.41 4.11999 15.23C4.36999 12.72 4.29999 10.21 4.19999 7.7C4.13999 6.33 4.09999 4.95 4.05999 3.58C4.03999 3.1 4.48999 2.82 4.99999 2.97C5.29999 3.06 5.44999 3.26 5.44999 3.56C5.40999 5.05 5.38999 6.54 5.33999 8.03C5.28999 9.53 5.23999 11.02 5.13999 12.52C5.07999 13.42 4.91999 14.32 4.79999 15.22C4.79999 15.26 4.78999 15.3 4.77999 15.34C5.04999 15.34 5.31999 15.33 5.58999 15.34C6.94999 15.41 8.30999 15.48 9.66999 15.56C10.71 15.62 11.74 15.69 12.78 15.75C13.64 15.8 14.5 15.86 15.36 15.88C16.03 15.89 16.71 15.85 17.38 15.83C17.46 15.83 17.53 15.8 17.6 15.78C18.37 15.58 18.69 15.13 18.52 14.46C18.49 14.32 18.43 14.18 18.38 14.05C18.25 13.68 18.42 13.39 18.83 13.28C19.24 13.17 19.59 13.34 19.71 13.71C19.86 14.18 19.94 14.66 19.86 15.14C19.72 16.01 19.06 16.47 18.11 16.68C17.19 16.89 16.25 16.88 15.31 16.82C14.34 16.76 13.38 16.65 12.42 16.58C11.69 16.53 10.96 16.52 10.23 16.46C9.20999 16.37 8.18999 16.22 7.15999 16.13C5.94999 16.02 4.74999 15.98 3.57999 16.34C2.64999 16.62 1.97999 17.15 1.51999 17.89C1.82999 18.25 2.24999 18.48 2.72999 18.65C3.51999 18.92 4.34999 18.97 5.17999 18.94C6.31999 18.89 7.46999 18.8 8.60999 18.72C9.61999 18.65 10.61 18.65 11.63 18.74C12.71 18.83 13.8 18.79 14.88 18.8C16.27 18.81 17.65 18.81 19.04 18.82C19.15 18.82 19.26 18.83 19.36 18.84C19.56 18.87 19.67 18.98 19.68 19.15C19.69 19.32 19.58 19.42 19.4 19.47C19.31 19.49 19.22 19.51 19.13 19.52C17.37 19.64 15.62 19.79 13.86 19.88C12.95 19.93 12.03 19.88 11.11 19.88C10.15 19.89 9.18999 19.9 8.22999 19.93C6.87999 19.97 5.52999 20.08 4.16999 19.99C3.41999 19.94 2.68999 19.83 1.99999 19.56C0.889989 19.12 0.309989 18.35 0.0899885 17.35C-0.0700115 16.61 -0.0300115 15.87 0.0599885 15.13C0.0799885 15.01 0.0899885 14.88 0.0899885 14.76C0.109989 12.84 0.0999885 10.92 0.139989 9C0.189989 6.75 0.399988 4.5 0.759988 2.27C0.859988 1.81 0.959989 1.4 1.18999 1.01C1.56999 0.38 2.14999 0.07 3.01999 0.12C6.12999 0.3 9.23999 0.25 12.35 0.17C14.17 0.13 16 0.08 17.82 0.04C17.96 0.04 18.09 0.01 18.23 0C18.48 0 18.74 0 19.01 0Z" fill="#666C9D"/>
<path d="M11.41 3.82004C13.51 3.81004 15.75 5.88004 14.29 8.12004C13.88 8.75004 13.31 9.25004 12.63 9.67004C12.42 9.80004 12.36 9.93004 12.45 10.13C12.55 10.34 12.49 10.54 12.3 10.7C12.09 10.87 11.83 10.96 11.56 10.86C11.39 10.8 11.22 10.66 11.15 10.53C10.99 10.18 10.98 9.81004 11.14 9.44004C11.24 9.21004 11.43 9.03004 11.69 8.91004C12.32 8.62004 12.87 8.25004 13.26 7.73004C14.04 6.68004 13.62 5.32004 12.36 4.76004C11.32 4.30004 9.97997 4.75004 9.67997 5.72004C9.59997 5.99004 9.56997 6.27004 9.52997 6.56004C9.47997 6.86004 9.30997 7.01004 8.97997 7.00004C8.67997 6.99004 8.45997 6.81004 8.50997 6.55004C8.63997 5.76004 8.92997 5.03004 9.60997 4.45004C10.1 4.02004 10.7 3.81004 11.41 3.82004Z" fill="#666C9D"/>
<path d="M12.86 12.71C12.86 13.21 12.39 13.6 11.8 13.59C11.1 13.59 10.59 13.19 10.6 12.66C10.61 12.16 11.04 11.79 11.62 11.79C12.35 11.8 12.87 12.18 12.86 12.71Z" fill="#666C9D"/>
</g>
<defs>
<clipPath id="clip0_9:4839">
<rect width="20" height="20" fill="white"/>
</clipPath>
</defs>
</svg>
