<svg width="76" height="10" viewBox="0 0 76 10" fill="none" xmlns="http://www.w3.org/2000/svg">
<g clip-path="url(#clip0_37:2581)">
<path d="M7.49187 6.57172C3.58061 9.98747 2.03221 5.07837 0.00050354 2.59389C3.91177 -0.822957 5.46016 4.08724 7.49187 6.57172Z" fill="#2A387D"/>
<path d="M7.49187 6.57172C3.58061 9.98747 2.03221 5.07837 0.00050354 2.59389C3.91177 -0.822957 5.46016 4.08724 7.49187 6.57172Z" fill="#503AF2"/>
<path d="M19.6061 2.68251C19.5032 2.61377 19.379 2.61931 19.3276 2.6947L15.4208 8.47075C14.3367 6.93195 10.4276 1.38539 10.4276 1.38539C9.25628 -0.324146 7.09927 0.229069 5.78134 1.44304C5.78134 1.44304 11.0508 8.92087 11.0508 8.91976C12.2233 10.6293 14.3792 10.0761 15.6971 8.86211L15.696 8.861L19.7001 2.94082C19.7516 2.86654 19.7091 2.75013 19.6061 2.68251Z" fill="#3866FF"/>
<path d="M31.495 2.77441L28.5201 8.98173H27.05L24.2173 2.77441H25.9279L27.8119 7.23229L29.762 2.77441H31.495Z" fill="#00156A"/>
<path d="M34.3173 0.993216C34.3173 1.33911 34.2323 1.59299 34.0611 1.75486C33.891 1.91672 33.6237 1.99765 33.26 1.99765C32.8819 1.99765 32.6134 1.92005 32.4534 1.76594C32.2934 1.61184 32.214 1.35353 32.214 0.994325C32.214 0.648427 32.2957 0.396764 32.459 0.238227C32.6223 0.0796905 32.8897 0.000976562 33.26 0.000976562C33.6304 0.000976562 33.8989 0.0807992 34.0667 0.238227C34.2334 0.395655 34.3173 0.647318 34.3173 0.993216ZM34.0555 8.98213H32.421V2.77481H34.0555V8.98213Z" fill="#00156A"/>
<path d="M42.2265 2.77441L39.2516 8.98173H37.7816L34.9488 2.77441H36.6594L38.5435 7.23229L40.4946 2.77441H42.2265Z" fill="#00156A"/>
<path d="M49.1667 8.9816H47.87L47.7067 7.65344C47.4527 8.13571 47.0723 8.50821 46.5678 8.77096C46.0632 9.03371 45.4691 9.16453 44.7867 9.16453C44.046 9.16453 43.4777 9.01708 43.0817 8.72218C42.6856 8.42728 42.4876 8.00599 42.4876 7.45832C42.4876 7.10577 42.5614 6.79979 42.7113 6.54036C42.8601 6.28094 43.0794 6.07251 43.3703 5.91398C43.6388 5.7632 43.9409 5.64901 44.2743 5.57362C44.6088 5.49823 45.1783 5.42063 45.9849 5.34191C46.6528 5.2765 47.0947 5.19668 47.3084 5.09912C47.5221 5.00156 47.6295 4.84524 47.6295 4.62905V4.61797C47.6295 4.34413 47.5042 4.13792 47.2536 3.99713C47.003 3.85633 46.6271 3.78648 46.1259 3.78648C45.5374 3.78648 45.0977 3.87961 44.8079 4.06697C44.5171 4.25433 44.3537 4.54923 44.3179 4.95278H42.6733C42.746 4.19668 43.0705 3.61575 43.6489 3.20888C44.2262 2.802 45.016 2.59912 46.0185 2.59912C47.1081 2.59912 47.9047 2.78427 48.4093 3.15566C48.9139 3.52595 49.1667 4.11464 49.1667 4.92063V8.9816V8.9816ZM45.2991 7.98825C45.9457 7.98825 46.4973 7.79978 46.9549 7.42174C47.4125 7.04369 47.6418 6.60688 47.6418 6.11021V5.89402C47.5254 5.98715 47.3565 6.06919 47.135 6.13681C46.9135 6.20555 46.6136 6.26098 46.2366 6.30422C45.7354 6.35522 45.3707 6.40511 45.1413 6.455C44.9131 6.50489 44.7285 6.5703 44.5909 6.64901C44.4533 6.72772 44.3548 6.81641 44.2967 6.91398C44.2385 7.01154 44.2094 7.12794 44.2094 7.26431V7.27539C44.2094 7.51265 44.3 7.69114 44.4813 7.80976C44.6636 7.9295 44.9355 7.98825 45.2991 7.98825Z" fill="#00156A"/>
<path d="M56.771 7.06041C56.771 7.70786 56.4947 8.22116 55.9432 8.59921C55.3905 8.97726 54.6286 9.16573 53.6552 9.16573C52.5946 9.16573 51.7746 8.98058 51.1928 8.6103C50.611 8.24001 50.2631 7.68014 50.1467 6.9318H51.9222C51.995 7.26994 52.1729 7.51495 52.4559 7.66573C52.739 7.81651 53.1607 7.89189 53.7201 7.89189C54.2213 7.89189 54.5894 7.83092 54.8266 7.70897C55.0627 7.58702 55.1801 7.39189 55.1801 7.12582C55.1801 6.91739 55.0638 6.76662 54.8311 6.67238C54.5984 6.57925 54.058 6.49943 53.2077 6.43513C52.1762 6.35642 51.4524 6.1746 51.0339 5.88968C50.6166 5.60586 50.4074 5.18569 50.4074 4.63247C50.4074 3.99943 50.667 3.50276 51.1861 3.14245C51.7052 2.78325 52.4268 2.60254 53.3487 2.60254C54.3142 2.60254 55.0716 2.77327 55.6198 3.11584C56.168 3.45731 56.5148 3.97394 56.6603 4.66462H54.9821C54.9172 4.36972 54.7528 4.15354 54.4921 4.01717C54.2303 3.88081 53.8454 3.81207 53.3375 3.81207C52.8799 3.81207 52.5365 3.87083 52.3082 3.99056C52.0789 4.10919 51.9648 4.28768 51.9648 4.52493C51.9648 4.74112 52.0822 4.89522 52.3194 4.98946C52.5555 5.08258 53.0835 5.1624 53.9047 5.22671C55.0011 5.31983 55.753 5.50608 56.1602 5.78325C56.5674 6.05819 56.771 6.48391 56.771 7.06041Z" fill="#00156A"/>
<path d="M61.2818 9.16587C60.1194 9.16587 59.2389 8.89647 58.6393 8.35655C58.0407 7.81664 57.7409 7.02174 57.7409 5.97074V5.87318C57.7409 4.86542 58.0642 4.0683 58.7109 3.48183C59.3575 2.89535 60.2212 2.60156 61.3042 2.60156C62.4006 2.60156 63.2688 2.89314 63.9076 3.47629C64.5464 4.05943 64.8664 4.85877 64.8664 5.87318V5.97074C64.8664 6.9785 64.552 7.76343 63.9244 8.3244C63.2945 8.88538 62.414 9.16587 61.2818 9.16587ZM61.3031 7.81553C61.9352 7.81553 62.4163 7.657 62.7463 7.34103C63.0764 7.02396 63.2419 6.56387 63.2419 5.95855V5.87207C63.2419 5.23904 63.0764 4.75456 62.7463 4.41975C62.4163 4.08493 61.9386 3.91753 61.3132 3.91753C60.6956 3.91753 60.2179 4.08715 59.88 4.42529C59.5421 4.76343 59.3732 5.24569 59.3732 5.87207V5.95855C59.3732 6.56276 59.5388 7.02396 59.8688 7.34103C60.2011 7.65811 60.6788 7.81553 61.3031 7.81553Z" fill="#00156A"/>
<path d="M70.0516 2.77437V4.13468H68.3197L68.3085 8.98169H66.7836V4.13468H65.4321V2.77437H66.7836V2.50497C66.7836 1.64909 66.9581 1.0471 67.3072 0.702309C67.6563 0.356411 68.2582 0.18457 69.1163 0.18457H70.0639V1.46949H69.3009C68.8869 1.46949 68.6195 1.53934 68.4998 1.68014C68.3801 1.82093 68.3197 2.12803 68.3197 2.60364V2.77659H70.0516V2.77437Z" fill="#00156A"/>
<path d="M75.3464 7.55735H75.9998V8.98196H74.9325C73.9804 8.98196 73.3292 8.7946 72.9768 8.42099C72.6244 8.04737 72.4488 7.33008 72.4488 6.27243V4.15602H71.01V2.85003C71.2349 2.85003 71.4027 2.84781 71.5112 2.84449C71.6197 2.84116 71.7249 2.83562 71.8267 2.82786C72.0807 2.8201 72.253 2.76467 72.3447 2.66045C72.4353 2.55624 72.4991 2.35225 72.5349 2.0507C72.5562 1.92875 72.5729 1.77575 72.5841 1.59172C72.5953 1.40768 72.5964 1.24471 72.5897 1.10059H73.9412V2.77354H75.9998V4.15602H73.9412V6.00192C73.9412 6.67819 74.0206 7.10724 74.1806 7.28684C74.3406 7.46755 74.7288 7.55735 75.3464 7.55735Z" fill="#00156A"/>
</g>
<defs>
<clipPath id="clip0_37:2581">
<rect width="76" height="10" fill="white" transform="translate(0.00050354 -0.000488281)"/>
</clipPath>
</defs>
</svg>